<svg width="406" height="228" xmlns="http://www.w3.org/2000/svg"><style>.start{fill:#47bf47}.end{fill:#bf4747}.point{fill:#000}.path,.path-other{stroke:#000;stroke-width:2;fill:none}.path-other{stroke:#b7b7b7}</style><g transform="translate(10 10)"><path d="M18 190l94-35 167-26 11-111" class="path"/><path class="path-other" d="M18 190l19-60"/><path class="path-other" d="M37 130l136-44"/><path class="path-other" d="M173 86l-61 69"/><path class="path-other" d="M173 86l106 43"/><path class="path-other" d="M112 155l77 47"/><path class="path-other" d="M189 202l90-73"/><path class="path-other" d="M279 129l102-49"/><circle cx="37" cy="130" r="5" class="point"/><circle cx="112" cy="155" r="5" class="point"/><circle cx="173" cy="86" r="5" class="point"/><circle cx="189" cy="202" r="5" class="point"/><circle cx="279" cy="129" r="5" class="point"/><circle cx="381" cy="80" r="5" class="point"/><circle cx="18" cy="190" r="18" class="start"/><circle cx="290" cy="18" r="18" class="end"/></g></svg>